<?xml version="1.0" standalone="no"?>
<!DOCTYPE svg PUBLIC "-//W3C//DTD SVG 20010904//EN"
 "http://www.w3.org/TR/2001/REC-SVG-20010904/DTD/svg10.dtd">
<svg version="1.0" xmlns="http://www.w3.org/2000/svg"
 width="618.000000pt" height="184.000000pt" viewBox="0 0 618.000000 184.000000"
 preserveAspectRatio="xMidYMid meet">

<g transform="translate(0.000000,184.000000) scale(0.100000,-0.100000)"
fill="#000000" stroke="none">
<path d="M5700 1532 l0 -189 -52 18 c-102 35 -232 16 -325 -47 -100 -68 -154
-171 -161 -303 -8 -141 23 -234 105 -322 82 -87 203 -128 324 -108 34 5 75 17
90 25 26 13 29 13 29 -1 0 -13 21 -15 135 -15 l135 0 0 565 0 565 -140 0 -140
0 0 -188z m250 -377 l0 -545 -110 0 -110 0 0 25 c0 14 -2 25 -4 25 -2 0 -25
-12 -52 -28 -43 -24 -59 -27 -139 -27 -82 0 -97 3 -157 33 -169 83 -241 299
-167 497 25 68 91 142 161 180 45 25 67 30 145 33 82 4 97 2 148 -22 32 -14
59 -26 61 -26 2 0 4 90 4 200 l0 200 110 0 110 0 0 -545z"/>
<path d="M5502 1134 c-65 -33 -99 -109 -87 -193 5 -35 16 -55 49 -87 56 -57
114 -67 183 -33 68 34 95 84 90 166 -3 67 -20 99 -70 137 -36 27 -122 32 -165
10z m158 -34 c39 -28 63 -93 55 -149 -5 -34 -16 -55 -45 -83 -33 -34 -43 -38
-86 -38 -97 0 -149 60 -142 161 5 65 28 100 83 125 37 18 98 10 135 -16z"/>
<path d="M230 1140 l0 -550 355 0 355 0 0 100 0 100 -245 0 -245 0 -2 448 -3
447 -107 3 -108 3 0 -551z"/>
<path d="M3898 1518 l-3 -153 -83 -3 -83 -3 3 -117 3 -117 83 -3 82 -3 0 -264
0 -265 140 0 140 0 0 265 0 265 80 0 80 0 0 120 0 120 -80 0 -79 0 -3 153 -3
152 -137 3 -137 3 -3 -153z m252 -28 l0 -150 85 0 85 0 0 -95 0 -95 -85 0 -85
0 0 -270 0 -271 -112 3 -113 3 -3 268 -2 267 -80 0 -80 0 0 95 0 95 80 0 80 0
0 150 0 150 115 0 115 0 0 -150z"/>
<path d="M1411 1564 c-186 -50 -340 -205 -396 -398 -26 -89 -17 -249 18 -334
14 -35 118 -204 229 -375 112 -172 222 -340 243 -374 22 -35 43 -63 48 -63 15
0 491 727 521 795 26 61 30 85 34 186 5 125 -7 189 -53 279 -64 125 -191 232
-327 275 -92 29 -228 33 -317 9z m291 -14 l36 -10 -21 -66 c-20 -61 -23 -65
-47 -60 -107 25 -215 14 -303 -30 -49 -25 -135 -103 -155 -139 -10 -20 -12
-19 -66 10 -31 17 -56 34 -56 39 0 21 46 80 103 131 68 62 153 107 243 130 64
16 202 14 266 -5z m23 -175 c194 -94 277 -330 184 -522 -35 -72 -120 -156
-191 -189 -56 -26 -74 -29 -158 -29 -119 1 -187 25 -263 95 -221 202 -153 558
125 661 83 30 224 23 303 -16z m366 -256 c11 -62 9 -182 -3 -194 -3 -3 -32 0
-64 7 l-58 13 -2 80 c-1 60 -7 96 -27 143 l-25 63 36 23 c81 50 74 51 104 -12
14 -31 32 -87 39 -123z m-931 -195 c0 -30 59 -139 94 -174 19 -19 35 -39 35
-45 0 -5 -21 -34 -47 -63 l-47 -53 -66 103 c-66 103 -99 172 -99 208 0 14 11
21 43 28 66 15 87 14 87 -4z"/>
<path d="M1277 1243 c-3 -10 -12 -35 -21 -55 -13 -30 -13 -38 -3 -38 7 0 13 8
13 18 1 9 9 34 18 55 9 20 12 37 7 37 -5 0 -11 -8 -14 -17z"/>
<path d="M1310 1219 c-6 -24 -15 -53 -21 -64 -6 -12 -9 -50 -7 -85 l3 -65 48
-3 47 -3 0 45 c0 42 2 46 24 46 22 0 25 -5 28 -42 l3 -43 53 -3 52 -3 0 75 c0
44 4 76 10 76 6 0 10 7 10 15 0 23 -31 95 -41 95 -5 0 -2 -16 6 -36 18 -44 20
-77 3 -72 -12 4 -20 26 -32 81 -12 51 -22 27 -12 -28 6 -33 15 -55 23 -55 9 0
13 -19 13 -65 l0 -65 -35 0 c-35 0 -35 0 -35 45 l0 45 -40 0 -40 0 0 -45 c0
-45 0 -45 -35 -45 l-35 0 0 65 c0 36 4 65 9 65 8 0 24 100 16 108 -2 2 -9 -16
-15 -39z"/>
<path d="M1356 1238 c-14 -71 -15 -88 -3 -88 8 0 13 20 15 55 3 56 -4 74 -12
33z"/>
<path d="M1399 1207 c-2 -35 0 -57 6 -57 6 0 9 18 7 43 -5 71 -8 75 -13 14z"/>
<path d="M1441 1214 c5 -25 6 -50 3 -55 -3 -5 1 -9 9 -9 9 0 14 7 12 18 -2 9
-7 34 -10 55 -3 20 -10 37 -14 37 -5 0 -5 -21 0 -46z"/>
<path d="M1610 1145 c0 -9 -7 -18 -15 -21 -20 -8 -48 -64 -32 -65 7 0 64 -1
127 -2 l115 -2 3 -52 3 -53 -65 0 c-63 0 -66 1 -66 24 0 39 -19 41 -27 4 l-7
-33 -6 29 c-6 36 -24 36 -28 1 -2 -15 -9 -24 -15 -22 -7 2 -20 0 -29 -5 -14
-7 -18 -22 -18 -67 0 -50 4 -64 27 -90 33 -38 57 -39 79 -6 13 20 14 28 4 40
-14 17 -56 20 -65 5 -3 -5 -13 -10 -21 -10 -10 0 -14 12 -14 45 l0 45 140 0
140 0 0 -45 c0 -33 -4 -45 -15 -45 -8 0 -15 5 -15 10 0 15 -42 12 -64 -5 -18
-13 -18 -16 -2 -40 22 -33 46 -32 79 6 23 27 27 40 27 95 0 49 4 65 18 73 9 6
12 11 5 11 -6 0 -15 -4 -18 -10 -3 -5 -13 -10 -21 -10 -10 0 -14 14 -14 55 0
30 5 55 10 55 19 0 10 31 -15 54 -14 13 -25 28 -25 35 0 7 -30 11 -90 11 -74
0 -90 -3 -90 -15z m170 -15 c0 -18 -7 -20 -80 -20 -73 0 -80 2 -80 20 0 18 7
20 80 20 73 0 80 -2 80 -20z m42 -35 c17 -22 3 -25 -122 -25 -121 0 -130 1
-121 18 8 15 25 17 123 17 64 0 116 -4 120 -10z m-195 -137 c-3 -7 -5 -2 -5
12 0 14 2 19 5 13 2 -7 2 -19 0 -25z m40 0 c-3 -7 -5 -2 -5 12 0 14 2 19 5 13
2 -7 2 -19 0 -25z m168 -29 c-8 -12 -265 -9 -265 4 0 4 61 7 136 7 93 0 133
-3 129 -11z m-190 -129 c0 -18 -6 -26 -23 -28 -13 -2 -25 3 -28 12 -10 26 4
48 28 44 17 -2 23 -10 23 -28z m160 0 c0 -18 -6 -26 -23 -28 -24 -4 -38 18
-28 44 3 9 15 14 28 12 17 -2 23 -10 23 -28z"/>
<path d="M1604 809 c-10 -17 13 -36 27 -22 12 12 4 33 -11 33 -5 0 -12 -5 -16
-11z m26 -9 c0 -5 -2 -10 -4 -10 -3 0 -8 5 -11 10 -3 6 -1 10 4 10 6 0 11 -4
11 -10z"/>
<path d="M1764 809 c-10 -17 13 -36 27 -22 12 12 4 33 -11 33 -5 0 -12 -5 -16
-11z m26 -9 c0 -5 -4 -10 -10 -10 -5 0 -10 5 -10 10 0 6 5 10 10 10 6 0 10 -4
10 -10z"/>
<path d="M1760 1026 c0 -9 7 -16 16 -16 9 0 14 5 12 12 -6 18 -28 21 -28 4z"/>
<path d="M1643 893 c-20 -8 -15 -33 7 -33 13 0 18 5 14 15 -5 12 3 15 36 15
34 0 41 -3 36 -16 -4 -11 0 -15 16 -12 30 4 34 24 6 32 -27 7 -97 7 -115 -1z"/>
<path d="M4637 1370 c-105 -27 -206 -105 -255 -197 -83 -158 -62 -338 55 -463
98 -107 246 -155 396 -131 87 14 180 57 227 106 l34 35 -72 73 c-40 40 -72 76
-72 80 0 4 38 7 85 7 102 0 100 -2 99 120 -1 113 -28 181 -100 259 -75 81
-148 113 -269 117 -49 2 -107 -1 -128 -6z m243 -36 c96 -32 171 -106 210 -210
16 -44 20 -75 18 -138 l-3 -81 -262 -5 -262 -5 16 -34 c9 -18 34 -45 57 -60
33 -22 50 -26 111 -26 64 0 78 4 125 33 l53 33 59 -58 59 -58 -46 -42 c-60
-55 -147 -83 -256 -83 -188 0 -338 104 -385 268 -22 73 -15 199 14 265 26 57
101 140 158 173 88 52 228 63 334 28z m40 -463 c0 -6 -16 -22 -36 -37 -27 -21
-50 -29 -95 -32 -32 -2 -69 -2 -83 2 -27 7 -86 53 -86 67 0 5 66 9 150 9 88 0
150 -4 150 -9z"/>
<path d="M4663 1162 c-32 -17 -65 -53 -76 -84 -6 -17 5 -18 153 -18 88 0 160
3 160 6 0 23 -38 77 -65 94 -41 25 -127 26 -172 2z m154 -22 c17 -10 37 -28
43 -39 11 -21 9 -21 -115 -21 -69 0 -125 4 -125 8 0 13 42 50 70 61 40 16 93
12 127 -9z"/>
<path d="M2460 1355 c-73 -21 -127 -54 -177 -108 -218 -237 -90 -617 224 -666
124 -19 262 21 338 99 44 45 42 50 -39 130 l-56 54 -27 -26 c-74 -71 -203 -78
-272 -15 -60 55 -78 165 -40 243 51 106 207 131 298 48 l37 -33 67 67 c37 37
67 73 67 79 0 19 -82 80 -144 109 -73 33 -194 42 -276 19z"/>
<path d="M3174 1361 c-187 -48 -308 -249 -276 -457 43 -277 303 -406 555 -276
4 2 7 -6 7 -17 0 -20 5 -21 105 -21 l105 0 0 385 0 385 -105 0 c-105 0 -105 0
-105 -24 l0 -25 -57 26 c-61 28 -170 39 -229 24z m192 -210 c130 -59 138 -265
14 -349 -30 -20 -45 -23 -100 -20 -80 4 -119 28 -150 94 -32 66 -26 166 14
219 53 69 143 92 222 56z"/>
</g>
</svg>
