<?xml version="1.0" standalone="no"?>
<!DOCTYPE svg PUBLIC "-//W3C//DTD SVG 20010904//EN"
 "http://www.w3.org/TR/2001/REC-SVG-20010904/DTD/svg10.dtd">
<svg version="1.0" xmlns="http://www.w3.org/2000/svg"
 width="351.000000pt" height="491.000000pt" viewBox="0 0 351.000000 491.000000"
 preserveAspectRatio="xMidYMid meet">

<g transform="translate(0.000000,491.000000) scale(0.100000,-0.100000)"
fill="#000000" stroke="none">
<path d="M1632 4899 c-517 -44 -981 -309 -1288 -735 -78 -108 -193 -336 -234
-462 -138 -430 -103 -918 97 -1315 25 -51 173 -283 328 -517 155 -234 436
-663 624 -955 608 -941 584 -905 607 -905 17 0 70 73 251 347 127 192 464 699
748 1128 548 826 606 922 674 1135 61 190 71 260 71 536 0 287 -12 369 -82
574 -257 748 -1008 1236 -1796 1169z m479 -78 c53 -12 126 -30 162 -41 l64
-20 -69 -188 c-38 -103 -70 -195 -71 -204 -1 -20 -14 -22 -52 -8 -77 29 -235
51 -370 51 -358 0 -648 -121 -900 -375 -64 -64 -129 -141 -155 -184 -30 -48
-50 -71 -61 -69 -19 5 -359 207 -359 214 0 3 24 42 53 86 261 401 685 674
1166 752 130 21 466 13 592 -14z m-113 -477 c322 -57 617 -259 806 -551 175
-272 231 -631 147 -943 -37 -137 -126 -324 -203 -425 -71 -93 -218 -238 -297
-292 -354 -243 -845 -271 -1236 -70 -332 171 -576 502 -640 867 -36 205 -12
465 60 652 214 552 775 866 1363 762z m1305 -451 c110 -229 155 -410 164 -663
5 -149 -7 -341 -24 -386 -4 -11 -14 -13 -37 -8 -17 4 -107 24 -201 44 l-170
37 2 34 c2 19 3 104 4 189 2 125 -2 175 -20 257 -24 116 -67 240 -115 329
l-32 61 180 111 c100 61 184 111 187 111 3 1 31 -52 62 -116z m-2754 -1075
c26 -97 87 -245 133 -320 51 -84 141 -198 211 -267 l65 -63 -154 -179 c-84
-99 -157 -180 -161 -180 -4 -1 -21 23 -38 53 -16 30 -44 72 -61 94 -17 21 -41
57 -53 79 -12 22 -60 94 -106 160 -47 66 -108 165 -135 220 -46 92 -119 297
-133 370 l-6 31 202 40 c111 23 205 42 208 42 3 1 16 -35 28 -80z"/>
<path d="M920 3920 c0 -6 135 -10 385 -10 250 0 385 4 385 10 0 6 -135 10
-385 10 -250 0 -385 -4 -385 -10z"/>
<path d="M875 3769 c-27 -66 -53 -123 -57 -125 -4 -3 -8 -21 -8 -40 0 -19 -4
-34 -10 -34 -5 0 -10 -7 -10 -15 0 -12 13 -15 60 -15 l60 0 0 -224 c0 -224 0
-224 23 -230 12 -3 86 -6 163 -6 167 0 154 -15 154 163 l0 117 65 0 65 0 0
-134 0 -133 31 -7 c17 -3 96 -6 175 -6 l144 0 0 230 0 230 40 0 40 0 -6 43
c-7 49 -1 32 -62 182 -49 120 -50 120 -85 123 l-36 3 55 -135 c30 -75 54 -147
54 -161 0 -23 -4 -25 -45 -25 -44 0 -45 1 -45 31 0 16 -11 69 -24 117 -14 48
-29 106 -36 130 -10 37 -14 42 -40 42 -17 0 -30 -5 -30 -12 0 -7 13 -62 30
-123 16 -60 30 -127 30 -147 0 -37 -1 -38 -39 -38 l-38 0 -6 73 c-3 39 -13
111 -23 160 -16 84 -17 87 -43 87 -15 0 -30 -2 -33 -5 -3 -3 3 -46 13 -95 10
-49 21 -119 25 -155 l7 -65 -47 0 -46 0 0 160 0 160 -35 0 -35 0 0 -160 0
-160 -45 0 -45 0 0 38 c0 20 9 92 19 160 l18 122 -32 0 -32 0 -16 -102 c-9
-57 -19 -129 -23 -160 l-7 -58 -38 0 c-37 0 -39 1 -39 33 0 17 11 75 25 127
14 52 28 110 31 128 6 30 5 32 -24 32 -28 0 -32 -4 -46 -53 -25 -87 -56 -221
-56 -244 0 -20 -5 -23 -45 -23 -41 0 -45 2 -45 24 0 13 25 83 55 156 30 73 55
134 55 136 0 2 -13 4 -28 4 -27 0 -31 -7 -77 -121z m785 -424 l0 -195 -105 0
-105 0 0 134 0 133 -127 5 c-71 3 -131 4 -135 1 -5 -2 -8 -65 -8 -139 l0 -134
-100 0 -100 0 0 195 0 195 340 0 340 0 0 -195z"/>
<path d="M1937 3583 c-4 -3 -7 -30 -7 -60 l0 -53 -37 0 -38 0 -48 -101 c-27
-56 -45 -105 -40 -109 4 -5 26 -10 48 -12 l40 -3 0 -160 0 -160 -48 -3 -47 -3
2 -222 3 -222 35 -5 c28 -4 36 -10 39 -30 8 -58 82 -120 142 -120 53 0 103 40
125 100 l18 50 108 0 108 0 0 -30 c0 -23 11 -42 45 -75 38 -38 50 -45 85 -45
70 0 115 42 144 133 4 11 16 17 36 17 l30 0 0 206 0 206 38 38 c23 24 49 39
67 42 44 5 32 22 -17 26 -37 3 -45 -1 -74 -32 -26 -28 -41 -36 -69 -36 l-35 0
2 163 3 162 43 3 c38 3 42 6 42 29 0 14 -19 63 -42 109 -41 83 -42 84 -79 84
l-38 0 -3 58 -3 57 -286 3 c-157 1 -288 -1 -292 -5z m541 -100 c3 -58 1 -63
-20 -68 -13 -3 -124 -4 -248 -3 l-225 3 -3 68 -3 67 248 -2 248 -3 3 -62z
m-548 -72 c0 -39 17 -41 301 -39 l274 3 13 28 c22 46 48 35 82 -34 16 -34 27
-66 24 -70 -6 -10 -787 -13 -797 -3 -3 3 8 35 26 70 25 51 36 64 54 64 16 0
23 -6 23 -19z m496 -176 c3 -8 -4 -26 -15 -41 -25 -32 -27 -61 -4 -86 22 -24
69 -24 83 1 16 31 12 66 -10 86 -11 10 -20 26 -20 37 0 15 8 18 45 18 l45 0 0
-165 0 -165 -182 2 -183 3 -5 65 c-6 64 -32 124 -57 135 -20 7 -47 -62 -53
-133 -3 -34 -9 -62 -15 -62 -5 0 -11 29 -13 64 -2 41 -8 69 -17 76 -8 7 -15
18 -15 25 0 7 -7 18 -15 25 -12 10 -16 8 -24 -12 -5 -13 -16 -30 -25 -37 -12
-10 -16 -31 -16 -82 0 -55 -3 -69 -15 -69 -13 0 -15 25 -15 165 l0 165 260 0
c220 0 262 -2 266 -15z m34 -85 c0 -5 -7 -10 -15 -10 -8 0 -15 5 -15 10 0 6 7
10 15 10 8 0 15 -4 15 -10z m-460 -171 c0 -81 -24 -77 -28 4 -2 46 0 57 13 57
12 0 15 -13 15 -61z m130 0 c0 -42 -4 -59 -12 -57 -12 4 -22 94 -12 110 14 23
24 2 24 -53z m513 -114 c1 -7 -143 -11 -415 -13 -369 -2 -418 0 -418 13 0 13
49 15 415 13 266 -2 416 -7 418 -13z m5 -207 l-3 -143 -27 -3 c-20 -2 -28 1
-28 11 0 9 -14 27 -31 41 -25 21 -41 26 -85 26 -50 0 -57 -3 -94 -40 l-40 -40
-115 0 -115 0 -32 36 c-25 26 -44 37 -75 41 -58 8 -84 -1 -124 -42 -37 -37
-63 -45 -73 -19 -8 20 -8 238 0 258 5 14 52 16 425 16 l420 0 -3 -142z m-140
-108 c22 0 62 -62 62 -95 0 -59 -68 -107 -123 -86 -44 17 -101 111 -67 111 6
0 10 6 10 13 0 27 61 70 88 61 8 -2 21 -4 30 -4z m-483 -6 c21 -9 45 -56 45
-91 -1 -15 -11 -41 -24 -57 -19 -23 -32 -29 -66 -30 -37 -1 -46 4 -71 34 -37
44 -37 79 0 119 29 31 74 41 116 25z"/>
<path d="M2087 2764 c-4 -4 -26 -10 -50 -13 l-42 -6 0 -45 c0 -44 1 -45 35
-48 19 -2 39 -8 45 -13 12 -12 292 -12 300 1 3 6 21 10 39 10 21 0 40 8 52 21
17 19 17 23 3 47 -11 20 -26 29 -59 35 -64 12 -314 20 -323 11z m263 -49 c24
-45 2 -55 -120 -55 -96 0 -109 2 -126 21 -19 21 -18 21 5 40 19 16 40 19 125
19 99 0 103 -1 116 -25z m-300 -21 c0 -17 -22 -14 -28 4 -2 7 3 12 12 12 9 0
16 -7 16 -16z m367 -6 c-3 -8 -6 -5 -6 6 -1 11 2 17 5 13 3 -3 4 -12 1 -19z"/>
<path d="M2427 2502 c-24 -26 -21 -67 5 -92 28 -25 62 -26 88 0 41 41 13 110
-44 110 -19 0 -40 -8 -49 -18z m73 -42 c0 -15 -7 -20 -25 -20 -24 0 -34 18
-18 33 15 15 43 7 43 -13z"/>
<path d="M1926 2498 c-21 -30 -20 -50 5 -82 38 -48 109 -20 109 42 0 58 -82
86 -114 40z m74 -38 c0 -13 -7 -20 -18 -20 -24 0 -32 8 -25 26 8 22 43 17 43
-6z"/>
</g>
</svg>
